<svg width="115" height="23" viewBox="0 0 115 23" fill="none" xmlns="http://www.w3.org/2000/svg">
<path d="M100.355 5.44887H104.351V19.2008H100.355V5.44887ZM102.353 4.15152C101.609 4.15152 101.03 3.96124 100.615 3.58069C100.217 3.18283 100.018 2.68119 100.018 2.07576C100.018 1.47033 100.217 0.977337 100.615 0.596781C101.03 0.198927 101.609 0 102.353 0C103.097 0 103.668 0.198927 104.066 0.596781C104.481 0.977337 104.689 1.47033 104.689 2.07576C104.689 2.68119 104.481 3.18283 104.066 3.58069C103.668 3.96124 103.097 4.15152 102.353 4.15152Z" fill="#121713"/>
<path d="M112.535 19.3565C111.67 19.3565 110.927 19.2786 110.304 19.1229C109.681 18.95 109.171 18.6732 108.773 18.2926C108.375 17.9121 108.081 17.4191 107.891 16.8137C107.7 16.1909 107.605 15.4298 107.605 14.5303V8.71819H105.919V5.44887H107.605V2.33523H111.601V5.44887H114.741V8.71819H111.601V13.8816C111.601 14.6601 111.722 15.2136 111.964 15.5423C112.224 15.8709 112.717 16.0352 113.443 16.0352C113.962 16.0352 114.481 16.0093 115 15.9574V19.2267C114.672 19.2613 114.326 19.2873 113.962 19.3046C113.599 19.3392 113.123 19.3565 112.535 19.3565Z" fill="#121713"/>
<path fill-rule="evenodd" clip-rule="evenodd" d="M88.2935 13.5813C88.3959 13.1026 88.4498 12.6058 88.4498 12.0964C88.4498 8.19443 85.2866 5.03123 81.3846 5.03123C77.4826 5.03123 74.3194 8.19443 74.3194 12.0964C74.3194 15.9984 77.4826 19.1616 81.3846 19.1616C83.4392 19.1616 85.2889 18.2846 86.5799 16.8846L83.4002 15.1452C82.8224 15.528 82.1296 15.7509 81.3846 15.7509C79.3664 15.7509 77.7302 14.1147 77.7302 12.0964C77.7302 10.0782 79.3664 8.44203 81.3846 8.44203C83.4029 8.44203 85.039 10.0782 85.039 12.0964C85.039 12.6251 84.9268 13.1276 84.7248 13.5813H88.2935Z" fill="black"/>
<path d="M77.5576 10.6655H85.5591V13.5813H77.5576L77.5576 10.6655Z" fill="black"/>
<path d="M69.8176 1.9859H73.3502V18.918H69.8176V1.9859Z" fill="black"/>
<path fill-rule="evenodd" clip-rule="evenodd" d="M55.4435 5.39668V22.3288H58.9761L58.9761 16.2381L60.4054 18.918H62.6305C66.1022 18.918 68.7212 16.2381 68.7212 11.9746C68.7212 7.71114 65.3105 5.39668 62.2042 5.39668H55.4435ZM58.9761 8.62475V15.6899H61.7169C64.3969 15.6899 65.3104 13.6191 65.3104 11.9746C65.3104 10.3301 64.0314 8.62475 61.7169 8.62475H58.9761Z" fill="black"/>
<path fill-rule="evenodd" clip-rule="evenodd" d="M47.5074 19.1616C51.4094 19.1616 54.5726 15.9984 54.5726 12.0964C54.5726 8.19443 51.4094 5.03123 47.5074 5.03123C43.6054 5.03123 40.4422 8.19443 40.4422 12.0964C40.4422 15.9984 43.6054 19.1616 47.5074 19.1616ZM47.5074 15.7509C49.5257 15.7509 51.1618 14.1147 51.1618 12.0964C51.1618 10.0782 49.5257 8.44203 47.5074 8.44203C45.4891 8.44203 43.853 10.0782 43.853 12.0964C43.853 14.1147 45.4891 15.7509 47.5074 15.7509Z" fill="black"/>
<path fill-rule="evenodd" clip-rule="evenodd" d="M39.555 13.5813C39.6574 13.1026 39.7113 12.6058 39.7113 12.0964C39.7113 8.19443 36.5481 5.03123 32.6461 5.03123C28.7441 5.03123 25.5809 8.19443 25.5809 12.0964C25.5809 15.9984 28.7441 19.1616 32.6461 19.1616C34.7007 19.1616 36.5505 18.2846 37.8415 16.8846L34.6617 15.1452C34.084 15.528 33.3911 15.7509 32.6462 15.7509C30.6279 15.7509 28.9917 14.1147 28.9917 12.0964C28.9917 10.0782 30.6279 8.44203 32.6462 8.44203C34.6644 8.44203 36.3006 10.0782 36.3006 12.0964C36.3006 12.6251 36.1883 13.1276 35.9863 13.5813H39.555Z" fill="black"/>
<path d="M28.8192 10.6655H36.8207V13.5813H28.8191L28.8192 10.6655Z" fill="black"/>
<path fill-rule="evenodd" clip-rule="evenodd" d="M4.35217 12.4278L0 16.0296V18.918H11.4688V22.4441H15.0014V18.918H18.6558C22.1275 18.918 24.7465 16.2381 24.7465 11.9746C24.7465 7.71112 21.3357 5.39666 18.2294 5.39666H16.4472L15.0015 8.15655V5.39666H11.4688V15.6544H4.70859L6.97847 13.9285C7.4287 13.5784 7.84766 13.2219 8.23535 12.8593C8.62304 12.4966 8.95446 12.1214 9.22959 11.7337C9.51723 11.346 9.7361 10.9458 9.88617 10.5331C10.0488 10.1204 10.13 9.68892 10.13 9.2387C10.13 8.6259 10.03 8.06312 9.82989 7.55036C9.6423 7.0376 9.3484 6.59989 8.9482 6.23721C8.548 5.86202 8.04775 5.57438 7.44746 5.37428C6.84716 5.16167 6.14681 5.05537 5.34641 5.05537C3.62055 5.05537 2.32616 5.49309 1.46323 6.36852C0.612805 7.24396 0.187593 8.48207 0.187593 10.0829H3.56427C3.56427 8.60714 4.15832 7.86927 5.34641 7.86927C5.79663 7.86927 6.14056 7.98808 6.37817 8.2257C6.6283 8.46332 6.75336 8.80098 6.75336 9.2387C6.75336 9.48882 6.70334 9.7327 6.60329 9.97031C6.51574 10.1954 6.37192 10.433 6.17182 10.6832C5.98423 10.9333 5.74036 11.2022 5.44021 11.4898C5.14006 11.765 4.77738 12.0776 4.35217 12.4278ZM15.0014 15.6899V8.62473H17.7422C20.0567 8.62473 21.3357 10.3301 21.3357 11.9746C21.3357 13.6191 20.4221 15.6899 17.7422 15.6899H15.0014Z" fill="black"/>
<path d="M95.0365 5.47877H97.0795L92.1091 19.2007H90.0661L95.0365 5.47877Z" fill="black"/>
<g opacity="0.5">
<path fill-rule="evenodd" clip-rule="evenodd" d="M78.0441 13.5814C77.8421 13.1277 77.7299 12.6252 77.7299 12.0965C77.7299 11.5886 77.8334 11.105 78.0206 10.6656H80.5409V13.5814H78.0441Z" fill="#6B6E6E"/>
<path d="M69.8165 15.6564H73.3494V18.918H69.8165V15.6564Z" fill="#6B6E6E"/>
<path d="M55.4408 5.39673H58.9737V8.62447H55.4408V5.39673Z" fill="#6B6E6E"/>
<path fill-rule="evenodd" clip-rule="evenodd" d="M29.3057 13.5814C29.1037 13.1277 28.9914 12.6252 28.9914 12.0965C28.9914 11.5886 29.095 11.105 29.2821 10.6656H31.8024V13.5814H29.3057Z" fill="#6B6E6E"/>
<path d="M11.4683 18.918H15.0012V22.4441H11.4683V18.918Z" fill="#6B6E6E"/>
<path d="M4.7124 15.6564H7.93336V18.918H4.7124V15.6564Z" fill="#6B6E6E"/>
</g>
<path fill-rule="evenodd" clip-rule="evenodd" d="M50.722 13.8367C51.0027 13.3193 51.1622 12.7265 51.1622 12.0965C51.1622 11.5624 51.0476 11.0551 50.8417 10.5978H54.4137C54.518 11.0808 54.5729 11.5822 54.5729 12.0965C54.5729 12.7027 54.4966 13.2912 54.353 13.8526H50.722V13.8367Z" fill="#6B6E6E"/>
<path d="M7.93408 15.6564H11.4697V18.918H7.93408V15.6564Z" fill="#6B6E6E"/>
</svg>
